<svg width="160" height="21" viewBox="0 0 160 21" fill="none" xmlns="http://www.w3.org/2000/svg">
<g filter="url(#filter0_d_104_3211)">
<mask id="path-1-outside-1_104_3211" maskUnits="userSpaceOnUse" x="-4" y="-4" width="166" height="27" fill="black">
<rect fill="white" x="-4" y="-4" width="166" height="27"/>
<path d="M0.171722 18V1.03125H4.62485V7.96875H4.85922L10.1092 1.03125H15.3358L9.52328 8.60156L15.453 18H10.1092L6.19516 11.5547L4.62485 13.5703V18H0.171722ZM20.7152 1.03125V18H16.262V1.03125H20.7152ZM22.532 1.03125H28.0867L32.118 10.8984H32.3289L36.3602 1.03125H41.9148V18H37.5555V8.01562H37.4148L33.5477 17.8828H30.8758L27.032 7.94531H26.8914V18H22.532V1.03125ZM50.177 18H43.7317V1.03125H50.1302C55.3567 1.03125 58.6145 4.21875 58.6145 9.51562C58.6145 14.8125 55.3567 18 50.177 18ZM48.1848 14.2031H50.013C52.638 14.2031 54.1145 13.1016 54.1145 9.51562C54.1145 5.92969 52.638 4.82812 49.8958 4.82812H48.1848V14.2031ZM63.4548 18H58.6267L64.2752 1.03125H70.3455L75.9705 18H71.1658L70.158 14.6719H64.4627L63.4548 18ZM65.4939 11.2969H69.1267L67.3689 5.60156H67.2283L65.4939 11.2969ZM77.178 18V1.03125H89.2952V4.64062H81.6311V7.71094H88.6623V11.3203H81.6311V14.3906H89.2717V18H77.178ZM90.4089 1.03125H95.4011L98.7761 7.96875H98.9167L102.315 1.03125H107.307L101.073 12.5625V18H96.6433V12.5625L90.4089 1.03125ZM123.515 9.51562C123.515 15.1641 119.905 18.2344 115.312 18.2344C110.671 18.2344 107.085 15.1406 107.085 9.51562C107.085 3.86719 110.671 0.796875 115.312 0.796875C119.905 0.796875 123.515 3.86719 123.515 9.51562ZM118.921 9.51562C118.921 6.39844 117.632 4.6875 115.312 4.6875C112.968 4.6875 111.679 6.39844 111.679 9.51562C111.679 12.6328 112.968 14.3438 115.312 14.3438C117.632 14.3438 118.921 12.6328 118.921 9.51562ZM141.527 9.51562C141.527 15.1641 137.918 18.2344 133.324 18.2344C128.683 18.2344 125.097 15.1406 125.097 9.51562C125.097 3.86719 128.683 0.796875 133.324 0.796875C137.918 0.796875 141.527 3.86719 141.527 9.51562ZM136.933 9.51562C136.933 6.39844 135.644 4.6875 133.324 4.6875C130.98 4.6875 129.691 6.39844 129.691 9.51562C129.691 12.6328 130.98 14.3438 133.324 14.3438C135.644 14.3438 136.933 12.6328 136.933 9.51562ZM157.828 1.03125V18H154.102L147.797 8.83594H147.68V18H143.227V1.03125H147.024L153.235 10.1484H153.375V1.03125H157.828Z"/>
</mask>
<path d="M0.171722 18V1.03125H4.62485V7.96875H4.85922L10.1092 1.03125H15.3358L9.52328 8.60156L15.453 18H10.1092L6.19516 11.5547L4.62485 13.5703V18H0.171722ZM20.7152 1.03125V18H16.262V1.03125H20.7152ZM22.532 1.03125H28.0867L32.118 10.8984H32.3289L36.3602 1.03125H41.9148V18H37.5555V8.01562H37.4148L33.5477 17.8828H30.8758L27.032 7.94531H26.8914V18H22.532V1.03125ZM50.177 18H43.7317V1.03125H50.1302C55.3567 1.03125 58.6145 4.21875 58.6145 9.51562C58.6145 14.8125 55.3567 18 50.177 18ZM48.1848 14.2031H50.013C52.638 14.2031 54.1145 13.1016 54.1145 9.51562C54.1145 5.92969 52.638 4.82812 49.8958 4.82812H48.1848V14.2031ZM63.4548 18H58.6267L64.2752 1.03125H70.3455L75.9705 18H71.1658L70.158 14.6719H64.4627L63.4548 18ZM65.4939 11.2969H69.1267L67.3689 5.60156H67.2283L65.4939 11.2969ZM77.178 18V1.03125H89.2952V4.64062H81.6311V7.71094H88.6623V11.3203H81.6311V14.3906H89.2717V18H77.178ZM90.4089 1.03125H95.4011L98.7761 7.96875H98.9167L102.315 1.03125H107.307L101.073 12.5625V18H96.6433V12.5625L90.4089 1.03125ZM123.515 9.51562C123.515 15.1641 119.905 18.2344 115.312 18.2344C110.671 18.2344 107.085 15.1406 107.085 9.51562C107.085 3.86719 110.671 0.796875 115.312 0.796875C119.905 0.796875 123.515 3.86719 123.515 9.51562ZM118.921 9.51562C118.921 6.39844 117.632 4.6875 115.312 4.6875C112.968 4.6875 111.679 6.39844 111.679 9.51562C111.679 12.6328 112.968 14.3438 115.312 14.3438C117.632 14.3438 118.921 12.6328 118.921 9.51562ZM141.527 9.51562C141.527 15.1641 137.918 18.2344 133.324 18.2344C128.683 18.2344 125.097 15.1406 125.097 9.51562C125.097 3.86719 128.683 0.796875 133.324 0.796875C137.918 0.796875 141.527 3.86719 141.527 9.51562ZM136.933 9.51562C136.933 6.39844 135.644 4.6875 133.324 4.6875C130.98 4.6875 129.691 6.39844 129.691 9.51562C129.691 12.6328 130.98 14.3438 133.324 14.3438C135.644 14.3438 136.933 12.6328 136.933 9.51562ZM157.828 1.03125V18H154.102L147.797 8.83594H147.68V18H143.227V1.03125H147.024L153.235 10.1484H153.375V1.03125H157.828Z" fill="white"/>
<path d="M0.171722 18H-3.82828V22H0.171722V18ZM0.171722 1.03125V-2.96875H-3.82828V1.03125H0.171722ZM4.62485 1.03125H8.62485V-2.96875H4.62485V1.03125ZM4.62485 7.96875H0.624847V11.9688H4.62485V7.96875ZM4.85922 7.96875V11.9688H6.84846L8.04885 10.3825L4.85922 7.96875ZM10.1092 1.03125V-2.96875H8.11999L6.9196 -1.38252L10.1092 1.03125ZM15.3358 1.03125L18.5085 3.46724L23.45 -2.96875H15.3358V1.03125ZM9.52328 8.60156L6.3506 6.16557L4.6523 8.37746L6.14033 10.7359L9.52328 8.60156ZM15.453 18V22H22.7063L18.8359 15.8656L15.453 18ZM10.1092 18L6.69027 20.0762L7.85852 22H10.1092V18ZM6.19516 11.5547L9.61411 9.47845L6.60389 4.52149L3.03973 9.09639L6.19516 11.5547ZM4.62485 13.5703L1.46942 11.112L0.624847 12.1961V13.5703H4.62485ZM4.62485 18V22H8.62485V18H4.62485ZM4.17172 18V1.03125H-3.82828V18H4.17172ZM0.171722 5.03125H4.62485V-2.96875H0.171722V5.03125ZM0.624847 1.03125V7.96875H8.62485V1.03125H0.624847ZM4.62485 11.9688H4.85922V3.96875H4.62485V11.9688ZM8.04885 10.3825L13.2988 3.44502L6.9196 -1.38252L1.6696 5.55498L8.04885 10.3825ZM10.1092 5.03125H15.3358V-2.96875H10.1092V5.03125ZM12.1631 -1.40474L6.3506 6.16557L12.696 11.0376L18.5085 3.46724L12.1631 -1.40474ZM6.14033 10.7359L12.07 20.1344L18.8359 15.8656L12.9062 6.46718L6.14033 10.7359ZM15.453 14H10.1092V22H15.453V14ZM13.5282 15.9238L9.61411 9.47845L2.77621 13.6309L6.69027 20.0762L13.5282 15.9238ZM3.03973 9.09639L1.46942 11.112L7.78028 16.0286L9.35059 14.013L3.03973 9.09639ZM0.624847 13.5703V18H8.62485V13.5703H0.624847ZM4.62485 14H0.171722V22H4.62485V14ZM20.7152 1.03125H24.7152V-2.96875H20.7152V1.03125ZM20.7152 18V22H24.7152V18H20.7152ZM16.262 18H12.262V22H16.262V18ZM16.262 1.03125V-2.96875H12.262V1.03125H16.262ZM16.7152 1.03125V18H24.7152V1.03125H16.7152ZM20.7152 14H16.262V22H20.7152V14ZM20.262 18V1.03125H12.262V18H20.262ZM16.262 5.03125H20.7152V-2.96875H16.262V5.03125ZM22.532 1.03125V-2.96875H18.532V1.03125H22.532ZM28.0867 1.03125L31.7896 -0.481569L30.7735 -2.96875H28.0867V1.03125ZM32.118 10.8984L28.4151 12.4113L29.4312 14.8984H32.118V10.8984ZM32.3289 10.8984V14.8984H35.0157L36.0318 12.4113L32.3289 10.8984ZM36.3602 1.03125V-2.96875H33.6734L32.6573 -0.481569L36.3602 1.03125ZM41.9148 1.03125H45.9148V-2.96875H41.9148V1.03125ZM41.9148 18V22H45.9148V18H41.9148ZM37.5555 18H33.5555V22H37.5555V18ZM37.5555 8.01562H41.5555V4.01562H37.5555V8.01562ZM37.4148 8.01562V4.01562H34.6863L33.6907 6.55603L37.4148 8.01562ZM33.5477 17.8828V21.8828H36.2762L37.2718 19.3424L33.5477 17.8828ZM30.8758 17.8828L27.1451 19.3258L28.1342 21.8828H30.8758V17.8828ZM27.032 7.94531L30.7627 6.50232L29.7737 3.94531H27.032V7.94531ZM26.8914 7.94531V3.94531H22.8914V7.94531H26.8914ZM26.8914 18V22H30.8914V18H26.8914ZM22.532 18H18.532V22H22.532V18ZM22.532 5.03125H28.0867V-2.96875H22.532V5.03125ZM24.3838 2.54407L28.4151 12.4113L35.8209 9.38562L31.7896 -0.481569L24.3838 2.54407ZM32.118 14.8984H32.3289V6.89844H32.118V14.8984ZM36.0318 12.4113L40.063 2.54407L32.6573 -0.481569L28.626 9.38562L36.0318 12.4113ZM36.3602 5.03125H41.9148V-2.96875H36.3602V5.03125ZM37.9148 1.03125V18H45.9148V1.03125H37.9148ZM41.9148 14H37.5555V22H41.9148V14ZM41.5555 18V8.01562H33.5555V18H41.5555ZM37.5555 4.01562H37.4148V12.0156H37.5555V4.01562ZM33.6907 6.55603L29.8235 16.4232L37.2718 19.3424L41.139 9.47522L33.6907 6.55603ZM33.5477 13.8828H30.8758V21.8828H33.5477V13.8828ZM34.6064 16.4398L30.7627 6.50232L23.3014 9.3883L27.1451 19.3258L34.6064 16.4398ZM27.032 3.94531H26.8914V11.9453H27.032V3.94531ZM22.8914 7.94531V18H30.8914V7.94531H22.8914ZM26.8914 14H22.532V22H26.8914V14ZM26.532 18V1.03125H18.532V18H26.532ZM43.7317 18H39.7317V22H43.7317V18ZM43.7317 1.03125V-2.96875H39.7317V1.03125H43.7317ZM48.1848 14.2031H44.1848V18.2031H48.1848V14.2031ZM48.1848 4.82812V0.828125H44.1848V4.82812H48.1848ZM50.177 14H43.7317V22H50.177V14ZM47.7317 18V1.03125H39.7317V18H47.7317ZM43.7317 5.03125H50.1302V-2.96875H43.7317V5.03125ZM50.1302 5.03125C51.9265 5.03125 52.9485 5.56349 53.5124 6.12402C54.0724 6.68066 54.6145 7.69613 54.6145 9.51562H62.6145C62.6145 6.03825 61.5278 2.81152 59.1522 0.450201C56.7806 -1.90724 53.5604 -2.96875 50.1302 -2.96875V5.03125ZM54.6145 9.51562C54.6145 11.3354 54.072 12.3546 53.5126 12.9129C52.9509 13.4735 51.9405 14 50.177 14V22C53.5932 22 56.8016 20.9328 59.1638 18.5754C61.5282 16.2157 62.6145 12.9927 62.6145 9.51562H54.6145ZM48.1848 18.2031H50.013V10.2031H48.1848V18.2031ZM50.013 18.2031C51.7806 18.2031 54.1297 17.8464 55.9285 15.9796C57.6817 14.1601 58.1145 11.7253 58.1145 9.51562H50.1145C50.1145 10.158 50.046 10.4945 50.0066 10.6278C49.9744 10.7368 49.9924 10.6106 50.1677 10.4286C50.2494 10.3439 50.3381 10.276 50.4209 10.2268C50.5009 10.1792 50.5551 10.1612 50.5635 10.1585C50.5635 10.1585 50.4115 10.2031 50.013 10.2031V18.2031ZM58.1145 9.51562C58.1145 7.30917 57.683 4.84957 55.8849 3.0219C54.0594 1.16637 51.6809 0.828125 49.8958 0.828125V8.82812C50.3368 8.82812 50.5221 8.87534 50.5485 8.88336C50.5527 8.88465 50.507 8.87112 50.4319 8.82767C50.3538 8.7825 50.2656 8.71733 50.1821 8.63239C50.001 8.44835 49.9782 8.31433 50.008 8.41405C50.0457 8.54066 50.1145 8.87217 50.1145 9.51562H58.1145ZM49.8958 0.828125H48.1848V8.82812H49.8958V0.828125ZM44.1848 4.82812V14.2031H52.1848V4.82812H44.1848ZM63.4548 18V22H66.423L67.2832 19.1593L63.4548 18ZM58.6267 18L54.8315 16.7367L53.0794 22H58.6267V18ZM64.2752 1.03125V-2.96875H61.3909L60.4799 -0.232089L64.2752 1.03125ZM70.3455 1.03125L74.1423 -0.227366L73.2336 -2.96875H70.3455V1.03125ZM75.9705 18V22H81.5105L79.7673 16.7414L75.9705 18ZM71.1658 18L67.3375 19.1593L68.1977 22H71.1658V18ZM70.158 14.6719L73.9863 13.5126L73.1261 10.6719H70.158V14.6719ZM64.4627 14.6719V10.6719H61.4946L60.6343 13.5126L64.4627 14.6719ZM65.4939 11.2969L61.6674 10.1316L60.0944 15.2969H65.4939V11.2969ZM69.1267 11.2969V15.2969H74.5475L72.9488 10.1172L69.1267 11.2969ZM67.3689 5.60156L71.191 4.4219L70.3205 1.60156H67.3689V5.60156ZM67.2283 5.60156V1.60156H64.265L63.4018 4.43629L67.2283 5.60156ZM63.4548 14H58.6267V22H63.4548V14ZM62.422 19.2633L68.0704 2.29459L60.4799 -0.232089L54.8315 16.7367L62.422 19.2633ZM64.2752 5.03125H70.3455V-2.96875H64.2752V5.03125ZM66.5486 2.28987L72.1736 19.2586L79.7673 16.7414L74.1423 -0.227366L66.5486 2.28987ZM75.9705 14H71.1658V22H75.9705V14ZM74.9941 16.8407L73.9863 13.5126L66.3297 15.8312L67.3375 19.1593L74.9941 16.8407ZM70.158 10.6719H64.4627V18.6719H70.158V10.6719ZM60.6343 13.5126L59.6265 16.8407L67.2832 19.1593L68.291 15.8312L60.6343 13.5126ZM65.4939 15.2969H69.1267V7.29688H65.4939V15.2969ZM72.9488 10.1172L71.191 4.4219L63.5468 6.78122L65.3046 12.4765L72.9488 10.1172ZM67.3689 1.60156H67.2283V9.60156H67.3689V1.60156ZM63.4018 4.43629L61.6674 10.1316L69.3204 12.4621L71.0548 6.76684L63.4018 4.43629ZM77.178 18H73.178V22H77.178V18ZM77.178 1.03125V-2.96875H73.178V1.03125H77.178ZM89.2952 1.03125H93.2952V-2.96875H89.2952V1.03125ZM89.2952 4.64062V8.64062H93.2952V4.64062H89.2952ZM81.6311 4.64062V0.640625H77.6311V4.64062H81.6311ZM81.6311 7.71094H77.6311V11.7109H81.6311V7.71094ZM88.6623 7.71094H92.6623V3.71094H88.6623V7.71094ZM88.6623 11.3203V15.3203H92.6623V11.3203H88.6623ZM81.6311 11.3203V7.32031H77.6311V11.3203H81.6311ZM81.6311 14.3906H77.6311V18.3906H81.6311V14.3906ZM89.2717 14.3906H93.2717V10.3906H89.2717V14.3906ZM89.2717 18V22H93.2717V18H89.2717ZM81.178 18V1.03125H73.178V18H81.178ZM77.178 5.03125H89.2952V-2.96875H77.178V5.03125ZM85.2952 1.03125V4.64062H93.2952V1.03125H85.2952ZM89.2952 0.640625H81.6311V8.64062H89.2952V0.640625ZM77.6311 4.64062V7.71094H85.6311V4.64062H77.6311ZM81.6311 11.7109H88.6623V3.71094H81.6311V11.7109ZM84.6623 7.71094V11.3203H92.6623V7.71094H84.6623ZM88.6623 7.32031H81.6311V15.3203H88.6623V7.32031ZM77.6311 11.3203V14.3906H85.6311V11.3203H77.6311ZM81.6311 18.3906H89.2717V10.3906H81.6311V18.3906ZM85.2717 14.3906V18H93.2717V14.3906H85.2717ZM89.2717 14H77.178V22H89.2717V14ZM90.4089 1.03125V-2.96875H83.6991L86.8903 2.93362L90.4089 1.03125ZM95.4011 1.03125L98.998 -0.718613L97.9034 -2.96875H95.4011V1.03125ZM98.7761 7.96875L95.1792 9.71861L96.2738 11.9688H98.7761V7.96875ZM98.9167 7.96875V11.9688H101.411L102.509 9.72842L98.9167 7.96875ZM102.315 1.03125V-2.96875H99.8205L98.723 -0.728419L102.315 1.03125ZM107.307 1.03125L110.826 2.93362L114.017 -2.96875H107.307V1.03125ZM101.073 12.5625L97.5543 10.6601L97.073 11.5504V12.5625H101.073ZM101.073 18V22H105.073V18H101.073ZM96.6433 18H92.6433V22H96.6433V18ZM96.6433 12.5625H100.643V11.5504L100.162 10.6601L96.6433 12.5625ZM90.4089 5.03125H95.4011V-2.96875H90.4089V5.03125ZM91.8042 2.78111L95.1792 9.71861L102.373 6.21889L98.998 -0.718613L91.8042 2.78111ZM98.7761 11.9688H98.9167V3.96875H98.7761V11.9688ZM102.509 9.72842L105.907 2.79092L98.723 -0.728419L95.3246 6.20908L102.509 9.72842ZM102.315 5.03125H107.307V-2.96875H102.315V5.03125ZM103.789 -0.871117L97.5543 10.6601L104.592 14.4649L110.826 2.93362L103.789 -0.871117ZM97.073 12.5625V18H105.073V12.5625H97.073ZM101.073 14H96.6433V22H101.073V14ZM100.643 18V12.5625H92.6433V18H100.643ZM100.162 10.6601L93.9276 -0.871117L86.8903 2.93362L93.1246 14.4649L100.162 10.6601ZM119.515 9.51562C119.515 11.4627 118.913 12.56 118.31 13.1619C117.691 13.7797 116.712 14.2344 115.312 14.2344V22.2344C118.506 22.2344 121.627 21.1539 123.962 18.8244C126.312 16.479 127.515 13.217 127.515 9.51562H119.515ZM115.312 14.2344C113.888 14.2344 112.904 13.7734 112.287 13.1559C111.683 12.5523 111.085 11.4545 111.085 9.51562H103.085C103.085 13.2018 104.28 16.4633 106.63 18.8128C108.965 21.1484 112.095 22.2344 115.312 22.2344V14.2344ZM111.085 9.51562C111.085 7.56122 111.685 6.46678 112.284 5.86932C112.897 5.25717 113.879 4.79688 115.312 4.79688V-3.20312C112.103 -3.20312 108.972 -2.12827 106.633 0.206851C104.278 2.55666 103.085 5.82159 103.085 9.51562H111.085ZM115.312 4.79688C116.712 4.79688 117.691 5.25154 118.31 5.86932C118.913 6.47124 119.515 7.56858 119.515 9.51562H127.515C127.515 5.81423 126.312 2.5522 123.962 0.206851C121.627 -2.12263 118.506 -3.20312 115.312 -3.20312V4.79688ZM122.921 9.51562C122.921 7.49219 122.516 5.30709 121.188 3.53445C119.728 1.58564 117.57 0.6875 115.312 0.6875V8.6875C115.397 8.6875 115.32 8.70168 115.16 8.62691C114.988 8.5465 114.857 8.42668 114.785 8.33078C114.726 8.2512 114.762 8.26335 114.814 8.46134C114.867 8.66198 114.921 9.0023 114.921 9.51562H122.921ZM115.312 0.6875C113.056 0.6875 110.89 1.57542 109.421 3.52712C108.084 5.3029 107.679 7.49292 107.679 9.51562H115.679C115.679 9.00215 115.733 8.66278 115.785 8.46356C115.837 8.26724 115.873 8.25715 115.812 8.33811C115.739 8.43554 115.608 8.55362 115.44 8.63166C115.284 8.70374 115.215 8.6875 115.312 8.6875V0.6875ZM107.679 9.51562C107.679 11.5383 108.084 13.7283 109.421 15.5041C110.89 17.4558 113.056 18.3438 115.312 18.3438V10.3438C115.215 10.3438 115.284 10.3275 115.44 10.3996C115.608 10.4776 115.739 10.5957 115.812 10.6931C115.873 10.7741 115.837 10.764 115.785 10.5677C115.733 10.3685 115.679 10.0291 115.679 9.51562H107.679ZM115.312 18.3438C117.57 18.3438 119.728 17.4456 121.188 15.4968C122.516 13.7242 122.921 11.5391 122.921 9.51562H114.921C114.921 10.0289 114.867 10.3693 114.814 10.5699C114.762 10.7679 114.726 10.7801 114.785 10.7005C114.857 10.6046 114.988 10.4848 115.16 10.4043C115.32 10.3296 115.397 10.3438 115.312 10.3438V18.3438ZM137.527 9.51562C137.527 11.4627 136.926 12.56 136.323 13.1619C135.704 13.7797 134.724 14.2344 133.324 14.2344V22.2344C136.518 22.2344 139.64 21.1539 141.974 18.8244C144.324 16.479 145.527 13.217 145.527 9.51562H137.527ZM133.324 14.2344C131.9 14.2344 130.916 13.7734 130.299 13.1559C129.695 12.5523 129.097 11.4545 129.097 9.51562H121.097C121.097 13.2018 122.293 16.4633 124.642 18.8128C126.978 21.1484 130.107 22.2344 133.324 22.2344V14.2344ZM129.097 9.51562C129.097 7.56122 129.697 6.46678 130.296 5.86932C130.909 5.25717 131.892 4.79688 133.324 4.79688V-3.20312C130.116 -3.20312 126.985 -2.12827 124.645 0.206851C122.29 2.55666 121.097 5.82159 121.097 9.51562H129.097ZM133.324 4.79688C134.724 4.79688 135.704 5.25154 136.323 5.86932C136.926 6.47124 137.527 7.56858 137.527 9.51562H145.527C145.527 5.81423 144.324 2.5522 141.974 0.206851C139.64 -2.12263 136.518 -3.20312 133.324 -3.20312V4.79688ZM140.933 9.51562C140.933 7.49219 140.528 5.30709 139.2 3.53445C137.74 1.58564 135.582 0.6875 133.324 0.6875V8.6875C133.409 8.6875 133.332 8.70168 133.172 8.62691C133 8.5465 132.869 8.42668 132.797 8.33078C132.738 8.2512 132.775 8.26335 132.827 8.46134C132.879 8.66198 132.933 9.0023 132.933 9.51562H140.933ZM133.324 0.6875C131.068 0.6875 128.902 1.57542 127.433 3.52712C126.096 5.3029 125.691 7.49292 125.691 9.51562H133.691C133.691 9.00215 133.745 8.66278 133.798 8.46356C133.849 8.26724 133.885 8.25715 133.824 8.33811C133.751 8.43554 133.62 8.55362 133.452 8.63166C133.297 8.70374 133.227 8.6875 133.324 8.6875V0.6875ZM125.691 9.51562C125.691 11.5383 126.096 13.7283 127.433 15.5041C128.902 17.4558 131.068 18.3438 133.324 18.3438V10.3438C133.227 10.3438 133.297 10.3275 133.452 10.3996C133.62 10.4776 133.751 10.5957 133.824 10.6931C133.885 10.7741 133.849 10.764 133.798 10.5677C133.745 10.3685 133.691 10.0291 133.691 9.51562H125.691ZM133.324 18.3438C135.582 18.3438 137.74 17.4456 139.2 15.4968C140.528 13.7242 140.933 11.5391 140.933 9.51562H132.933C132.933 10.0289 132.879 10.3693 132.827 10.5699C132.775 10.7679 132.738 10.7801 132.797 10.7005C132.869 10.6046 133 10.4848 133.172 10.4043C133.332 10.3296 133.409 10.3438 133.324 10.3438V18.3438ZM157.828 1.03125H161.828V-2.96875H157.828V1.03125ZM157.828 18V22H161.828V18H157.828ZM154.102 18L150.806 20.2672L151.998 22H154.102V18ZM147.797 8.83594L151.092 6.56875L149.9 4.83594H147.797V8.83594ZM147.68 8.83594V4.83594H143.68V8.83594H147.68ZM147.68 18V22H151.68V18H147.68ZM143.227 18H139.227V22H143.227V18ZM143.227 1.03125V-2.96875H139.227V1.03125H143.227ZM147.024 1.03125L150.329 -1.22078L149.139 -2.96875H147.024V1.03125ZM153.235 10.1484L149.929 12.4005L151.119 14.1484H153.235V10.1484ZM153.375 10.1484V14.1484H157.375V10.1484H153.375ZM153.375 1.03125V-2.96875H149.375V1.03125H153.375ZM153.828 1.03125V18H161.828V1.03125H153.828ZM157.828 14H154.102V22H157.828V14ZM157.397 15.7328L151.092 6.56875L144.502 11.1031L150.806 20.2672L157.397 15.7328ZM147.797 4.83594H147.68V12.8359H147.797V4.83594ZM143.68 8.83594V18H151.68V8.83594H143.68ZM147.68 14H143.227V22H147.68V14ZM147.227 18V1.03125H139.227V18H147.227ZM143.227 5.03125H147.024V-2.96875H143.227V5.03125ZM143.718 3.28328L149.929 12.4005L156.54 7.89641L150.329 -1.22078L143.718 3.28328ZM153.235 14.1484H153.375V6.14844H153.235V14.1484ZM157.375 10.1484V1.03125H149.375V10.1484H157.375ZM153.375 5.03125H157.828V-2.96875H153.375V5.03125Z" fill="black" mask="url(#path-1-outside-1_104_3211)"/>
</g>
<defs>
<filter id="filter0_d_104_3211" x="0.171875" y="0.796875" width="159.656" height="19.4375" filterUnits="userSpaceOnUse" color-interpolation-filters="sRGB">
<feFlood flood-opacity="0" result="BackgroundImageFix"/>
<feColorMatrix in="SourceAlpha" type="matrix" values="0 0 0 0 0 0 0 0 0 0 0 0 0 0 0 0 0 0 127 0" result="hardAlpha"/>
<feOffset dx="2" dy="2"/>
<feComposite in2="hardAlpha" operator="out"/>
<feColorMatrix type="matrix" values="0 0 0 0 0 0 0 0 0 0 0 0 0 0 0 0 0 0 1 0"/>
<feBlend mode="normal" in2="BackgroundImageFix" result="effect1_dropShadow_104_3211"/>
<feBlend mode="normal" in="SourceGraphic" in2="effect1_dropShadow_104_3211" result="shape"/>
</filter>
</defs>
</svg>
