<svg width="173" height="31" viewBox="0 0 173 31" fill="none" xmlns="http://www.w3.org/2000/svg">
<g filter="url(#filter0_d_104_3210)">
<mask id="path-1-outside-1_104_3210" maskUnits="userSpaceOnUse" x="3" y="1" width="166" height="27" fill="black">
<rect fill="white" x="3" y="1" width="166" height="27"/>
<path d="M7.17172 23V6.03125H11.6248V12.9688H11.8592L17.1092 6.03125H22.3358L16.5233 13.6016L22.453 23H17.1092L13.1952 16.5547L11.6248 18.5703V23H7.17172ZM27.7152 6.03125V23H23.262V6.03125H27.7152ZM29.532 6.03125H35.0867L39.118 15.8984H39.3289L43.3602 6.03125H48.9148V23H44.5555V13.0156H44.4148L40.5477 22.8828H37.8758L34.032 12.9453H33.8914V23H29.532V6.03125ZM57.177 23H50.7317V6.03125H57.1302C62.3567 6.03125 65.6145 9.21875 65.6145 14.5156C65.6145 19.8125 62.3567 23 57.177 23ZM55.1848 19.2031H57.013C59.638 19.2031 61.1145 18.1016 61.1145 14.5156C61.1145 10.9297 59.638 9.82812 56.8958 9.82812H55.1848V19.2031ZM70.4548 23H65.6267L71.2752 6.03125H77.3455L82.9705 23H78.1658L77.158 19.6719H71.4627L70.4548 23ZM72.4939 16.2969H76.1267L74.3689 10.6016H74.2283L72.4939 16.2969ZM84.178 23V6.03125H96.2952V9.64062H88.6311V12.7109H95.6623V16.3203H88.6311V19.3906H96.2717V23H84.178ZM97.4089 6.03125H102.401L105.776 12.9688H105.917L109.315 6.03125H114.307L108.073 17.5625V23H103.643V17.5625L97.4089 6.03125ZM130.515 14.5156C130.515 20.1641 126.905 23.2344 122.312 23.2344C117.671 23.2344 114.085 20.1406 114.085 14.5156C114.085 8.86719 117.671 5.79688 122.312 5.79688C126.905 5.79688 130.515 8.86719 130.515 14.5156ZM125.921 14.5156C125.921 11.3984 124.632 9.6875 122.312 9.6875C119.968 9.6875 118.679 11.3984 118.679 14.5156C118.679 17.6328 119.968 19.3438 122.312 19.3438C124.632 19.3438 125.921 17.6328 125.921 14.5156ZM148.527 14.5156C148.527 20.1641 144.918 23.2344 140.324 23.2344C135.683 23.2344 132.097 20.1406 132.097 14.5156C132.097 8.86719 135.683 5.79688 140.324 5.79688C144.918 5.79688 148.527 8.86719 148.527 14.5156ZM143.933 14.5156C143.933 11.3984 142.644 9.6875 140.324 9.6875C137.98 9.6875 136.691 11.3984 136.691 14.5156C136.691 17.6328 137.98 19.3438 140.324 19.3438C142.644 19.3438 143.933 17.6328 143.933 14.5156ZM164.828 6.03125V23H161.102L154.797 13.8359H154.68V23H150.227V6.03125H154.024L160.235 15.1484H160.375V6.03125H164.828Z"/>
</mask>
<path d="M7.17172 23V6.03125H11.6248V12.9688H11.8592L17.1092 6.03125H22.3358L16.5233 13.6016L22.453 23H17.1092L13.1952 16.5547L11.6248 18.5703V23H7.17172ZM27.7152 6.03125V23H23.262V6.03125H27.7152ZM29.532 6.03125H35.0867L39.118 15.8984H39.3289L43.3602 6.03125H48.9148V23H44.5555V13.0156H44.4148L40.5477 22.8828H37.8758L34.032 12.9453H33.8914V23H29.532V6.03125ZM57.177 23H50.7317V6.03125H57.1302C62.3567 6.03125 65.6145 9.21875 65.6145 14.5156C65.6145 19.8125 62.3567 23 57.177 23ZM55.1848 19.2031H57.013C59.638 19.2031 61.1145 18.1016 61.1145 14.5156C61.1145 10.9297 59.638 9.82812 56.8958 9.82812H55.1848V19.2031ZM70.4548 23H65.6267L71.2752 6.03125H77.3455L82.9705 23H78.1658L77.158 19.6719H71.4627L70.4548 23ZM72.4939 16.2969H76.1267L74.3689 10.6016H74.2283L72.4939 16.2969ZM84.178 23V6.03125H96.2952V9.64062H88.6311V12.7109H95.6623V16.3203H88.6311V19.3906H96.2717V23H84.178ZM97.4089 6.03125H102.401L105.776 12.9688H105.917L109.315 6.03125H114.307L108.073 17.5625V23H103.643V17.5625L97.4089 6.03125ZM130.515 14.5156C130.515 20.1641 126.905 23.2344 122.312 23.2344C117.671 23.2344 114.085 20.1406 114.085 14.5156C114.085 8.86719 117.671 5.79688 122.312 5.79688C126.905 5.79688 130.515 8.86719 130.515 14.5156ZM125.921 14.5156C125.921 11.3984 124.632 9.6875 122.312 9.6875C119.968 9.6875 118.679 11.3984 118.679 14.5156C118.679 17.6328 119.968 19.3438 122.312 19.3438C124.632 19.3438 125.921 17.6328 125.921 14.5156ZM148.527 14.5156C148.527 20.1641 144.918 23.2344 140.324 23.2344C135.683 23.2344 132.097 20.1406 132.097 14.5156C132.097 8.86719 135.683 5.79688 140.324 5.79688C144.918 5.79688 148.527 8.86719 148.527 14.5156ZM143.933 14.5156C143.933 11.3984 142.644 9.6875 140.324 9.6875C137.98 9.6875 136.691 11.3984 136.691 14.5156C136.691 17.6328 137.98 19.3438 140.324 19.3438C142.644 19.3438 143.933 17.6328 143.933 14.5156ZM164.828 6.03125V23H161.102L154.797 13.8359H154.68V23H150.227V6.03125H154.024L160.235 15.1484H160.375V6.03125H164.828Z" fill="white"/>
<path d="M7.17172 23H3.17172V27H7.17172V23ZM7.17172 6.03125V2.03125H3.17172V6.03125H7.17172ZM11.6248 6.03125H15.6248V2.03125H11.6248V6.03125ZM11.6248 12.9688H7.62485V16.9688H11.6248V12.9688ZM11.8592 12.9688V16.9688H13.8485L15.0488 15.3825L11.8592 12.9688ZM17.1092 6.03125V2.03125H15.12L13.9196 3.61748L17.1092 6.03125ZM22.3358 6.03125L25.5085 8.46724L30.45 2.03125H22.3358V6.03125ZM16.5233 13.6016L13.3506 11.1656L11.6523 13.3775L13.1403 15.7359L16.5233 13.6016ZM22.453 23V27H29.7063L25.8359 20.8656L22.453 23ZM17.1092 23L13.6903 25.0762L14.8585 27H17.1092V23ZM13.1952 16.5547L16.6141 14.4785L13.6039 9.52149L10.0397 14.0964L13.1952 16.5547ZM11.6248 18.5703L8.46942 16.112L7.62485 17.1961V18.5703H11.6248ZM11.6248 23V27H15.6248V23H11.6248ZM11.1717 23V6.03125H3.17172V23H11.1717ZM7.17172 10.0312H11.6248V2.03125H7.17172V10.0312ZM7.62485 6.03125V12.9688H15.6248V6.03125H7.62485ZM11.6248 16.9688H11.8592V8.96875H11.6248V16.9688ZM15.0488 15.3825L20.2988 8.44502L13.9196 3.61748L8.6696 10.555L15.0488 15.3825ZM17.1092 10.0312H22.3358V2.03125H17.1092V10.0312ZM19.1631 3.59526L13.3506 11.1656L19.696 16.0376L25.5085 8.46724L19.1631 3.59526ZM13.1403 15.7359L19.07 25.1344L25.8359 20.8656L19.9062 11.4672L13.1403 15.7359ZM22.453 19H17.1092V27H22.453V19ZM20.5282 20.9238L16.6141 14.4785L9.77621 18.6309L13.6903 25.0762L20.5282 20.9238ZM10.0397 14.0964L8.46942 16.112L14.7803 21.0286L16.3506 19.013L10.0397 14.0964ZM7.62485 18.5703V23H15.6248V18.5703H7.62485ZM11.6248 19H7.17172V27H11.6248V19ZM27.7152 6.03125H31.7152V2.03125H27.7152V6.03125ZM27.7152 23V27H31.7152V23H27.7152ZM23.262 23H19.262V27H23.262V23ZM23.262 6.03125V2.03125H19.262V6.03125H23.262ZM23.7152 6.03125V23H31.7152V6.03125H23.7152ZM27.7152 19H23.262V27H27.7152V19ZM27.262 23V6.03125H19.262V23H27.262ZM23.262 10.0312H27.7152V2.03125H23.262V10.0312ZM29.532 6.03125V2.03125H25.532V6.03125H29.532ZM35.0867 6.03125L38.7896 4.51843L37.7735 2.03125H35.0867V6.03125ZM39.118 15.8984L35.4151 17.4113L36.4312 19.8984H39.118V15.8984ZM39.3289 15.8984V19.8984H42.0157L43.0318 17.4113L39.3289 15.8984ZM43.3602 6.03125V2.03125H40.6734L39.6573 4.51843L43.3602 6.03125ZM48.9148 6.03125H52.9148V2.03125H48.9148V6.03125ZM48.9148 23V27H52.9148V23H48.9148ZM44.5555 23H40.5555V27H44.5555V23ZM44.5555 13.0156H48.5555V9.01562H44.5555V13.0156ZM44.4148 13.0156V9.01562H41.6863L40.6907 11.556L44.4148 13.0156ZM40.5477 22.8828V26.8828H43.2762L44.2718 24.3424L40.5477 22.8828ZM37.8758 22.8828L34.1451 24.3258L35.1342 26.8828H37.8758V22.8828ZM34.032 12.9453L37.7627 11.5023L36.7737 8.94531H34.032V12.9453ZM33.8914 12.9453V8.94531H29.8914V12.9453H33.8914ZM33.8914 23V27H37.8914V23H33.8914ZM29.532 23H25.532V27H29.532V23ZM29.532 10.0312H35.0867V2.03125H29.532V10.0312ZM31.3838 7.54407L35.4151 17.4113L42.8209 14.3856L38.7896 4.51843L31.3838 7.54407ZM39.118 19.8984H39.3289V11.8984H39.118V19.8984ZM43.0318 17.4113L47.063 7.54407L39.6573 4.51843L35.626 14.3856L43.0318 17.4113ZM43.3602 10.0312H48.9148V2.03125H43.3602V10.0312ZM44.9148 6.03125V23H52.9148V6.03125H44.9148ZM48.9148 19H44.5555V27H48.9148V19ZM48.5555 23V13.0156H40.5555V23H48.5555ZM44.5555 9.01562H44.4148V17.0156H44.5555V9.01562ZM40.6907 11.556L36.8235 21.4232L44.2718 24.3424L48.139 14.4752L40.6907 11.556ZM40.5477 18.8828H37.8758V26.8828H40.5477V18.8828ZM41.6064 21.4398L37.7627 11.5023L30.3014 14.3883L34.1451 24.3258L41.6064 21.4398ZM34.032 8.94531H33.8914V16.9453H34.032V8.94531ZM29.8914 12.9453V23H37.8914V12.9453H29.8914ZM33.8914 19H29.532V27H33.8914V19ZM33.532 23V6.03125H25.532V23H33.532ZM50.7317 23H46.7317V27H50.7317V23ZM50.7317 6.03125V2.03125H46.7317V6.03125H50.7317ZM55.1848 19.2031H51.1848V23.2031H55.1848V19.2031ZM55.1848 9.82812V5.82812H51.1848V9.82812H55.1848ZM57.177 19H50.7317V27H57.177V19ZM54.7317 23V6.03125H46.7317V23H54.7317ZM50.7317 10.0312H57.1302V2.03125H50.7317V10.0312ZM57.1302 10.0312C58.9265 10.0312 59.9485 10.5635 60.5124 11.124C61.0724 11.6807 61.6145 12.6961 61.6145 14.5156H69.6145C69.6145 11.0382 68.5278 7.81152 66.1522 5.4502C63.7806 3.09276 60.5604 2.03125 57.1302 2.03125V10.0312ZM61.6145 14.5156C61.6145 16.3354 61.072 17.3546 60.5126 17.9129C59.9509 18.4735 58.9405 19 57.177 19V27C60.5932 27 63.8016 25.9328 66.1638 23.5754C68.5282 21.2157 69.6145 17.9927 69.6145 14.5156H61.6145ZM55.1848 23.2031H57.013V15.2031H55.1848V23.2031ZM57.013 23.2031C58.7806 23.2031 61.1297 22.8464 62.9285 20.9796C64.6817 19.1601 65.1145 16.7253 65.1145 14.5156H57.1145C57.1145 15.158 57.046 15.4945 57.0066 15.6278C56.9744 15.7368 56.9924 15.6106 57.1677 15.4286C57.2494 15.3439 57.3381 15.276 57.4209 15.2268C57.5009 15.1792 57.5551 15.1612 57.5635 15.1585C57.5635 15.1585 57.4115 15.2031 57.013 15.2031V23.2031ZM65.1145 14.5156C65.1145 12.3092 64.683 9.84957 62.8849 8.0219C61.0594 6.16637 58.6809 5.82812 56.8958 5.82812V13.8281C57.3368 13.8281 57.5221 13.8753 57.5485 13.8834C57.5527 13.8847 57.507 13.8711 57.4319 13.8277C57.3538 13.7825 57.2656 13.7173 57.1821 13.6324C57.001 13.4483 56.9782 13.3143 57.008 13.4141C57.0457 13.5407 57.1145 13.8722 57.1145 14.5156H65.1145ZM56.8958 5.82812H55.1848V13.8281H56.8958V5.82812ZM51.1848 9.82812V19.2031H59.1848V9.82812H51.1848ZM70.4548 23V27H73.423L74.2832 24.1593L70.4548 23ZM65.6267 23L61.8315 21.7367L60.0794 27H65.6267V23ZM71.2752 6.03125V2.03125H68.3909L67.4799 4.76791L71.2752 6.03125ZM77.3455 6.03125L81.1423 4.77263L80.2336 2.03125H77.3455V6.03125ZM82.9705 23V27H88.5105L86.7673 21.7414L82.9705 23ZM78.1658 23L74.3375 24.1593L75.1977 27H78.1658V23ZM77.158 19.6719L80.9863 18.5126L80.1261 15.6719H77.158V19.6719ZM71.4627 19.6719V15.6719H68.4946L67.6343 18.5126L71.4627 19.6719ZM72.4939 16.2969L68.6674 15.1316L67.0944 20.2969H72.4939V16.2969ZM76.1267 16.2969V20.2969H81.5475L79.9488 15.1172L76.1267 16.2969ZM74.3689 10.6016L78.191 9.4219L77.3205 6.60156H74.3689V10.6016ZM74.2283 10.6016V6.60156H71.265L70.4018 9.43629L74.2283 10.6016ZM70.4548 19H65.6267V27H70.4548V19ZM69.422 24.2633L75.0704 7.29459L67.4799 4.76791L61.8315 21.7367L69.422 24.2633ZM71.2752 10.0312H77.3455V2.03125H71.2752V10.0312ZM73.5486 7.28987L79.1736 24.2586L86.7673 21.7414L81.1423 4.77263L73.5486 7.28987ZM82.9705 19H78.1658V27H82.9705V19ZM81.9941 21.8407L80.9863 18.5126L73.3297 20.8312L74.3375 24.1593L81.9941 21.8407ZM77.158 15.6719H71.4627V23.6719H77.158V15.6719ZM67.6343 18.5126L66.6265 21.8407L74.2832 24.1593L75.291 20.8312L67.6343 18.5126ZM72.4939 20.2969H76.1267V12.2969H72.4939V20.2969ZM79.9488 15.1172L78.191 9.4219L70.5468 11.7812L72.3046 17.4765L79.9488 15.1172ZM74.3689 6.60156H74.2283V14.6016H74.3689V6.60156ZM70.4018 9.43629L68.6674 15.1316L76.3204 17.4621L78.0548 11.7668L70.4018 9.43629ZM84.178 23H80.178V27H84.178V23ZM84.178 6.03125V2.03125H80.178V6.03125H84.178ZM96.2952 6.03125H100.295V2.03125H96.2952V6.03125ZM96.2952 9.64062V13.6406H100.295V9.64062H96.2952ZM88.6311 9.64062V5.64062H84.6311V9.64062H88.6311ZM88.6311 12.7109H84.6311V16.7109H88.6311V12.7109ZM95.6623 12.7109H99.6623V8.71094H95.6623V12.7109ZM95.6623 16.3203V20.3203H99.6623V16.3203H95.6623ZM88.6311 16.3203V12.3203H84.6311V16.3203H88.6311ZM88.6311 19.3906H84.6311V23.3906H88.6311V19.3906ZM96.2717 19.3906H100.272V15.3906H96.2717V19.3906ZM96.2717 23V27H100.272V23H96.2717ZM88.178 23V6.03125H80.178V23H88.178ZM84.178 10.0312H96.2952V2.03125H84.178V10.0312ZM92.2952 6.03125V9.64062H100.295V6.03125H92.2952ZM96.2952 5.64062H88.6311V13.6406H96.2952V5.64062ZM84.6311 9.64062V12.7109H92.6311V9.64062H84.6311ZM88.6311 16.7109H95.6623V8.71094H88.6311V16.7109ZM91.6623 12.7109V16.3203H99.6623V12.7109H91.6623ZM95.6623 12.3203H88.6311V20.3203H95.6623V12.3203ZM84.6311 16.3203V19.3906H92.6311V16.3203H84.6311ZM88.6311 23.3906H96.2717V15.3906H88.6311V23.3906ZM92.2717 19.3906V23H100.272V19.3906H92.2717ZM96.2717 19H84.178V27H96.2717V19ZM97.4089 6.03125V2.03125H90.6991L93.8903 7.93362L97.4089 6.03125ZM102.401 6.03125L105.998 4.28139L104.903 2.03125H102.401V6.03125ZM105.776 12.9688L102.179 14.7186L103.274 16.9688H105.776V12.9688ZM105.917 12.9688V16.9688H108.411L109.509 14.7284L105.917 12.9688ZM109.315 6.03125V2.03125H106.82L105.723 4.27158L109.315 6.03125ZM114.307 6.03125L117.826 7.93362L121.017 2.03125H114.307V6.03125ZM108.073 17.5625L104.554 15.6601L104.073 16.5504V17.5625H108.073ZM108.073 23V27H112.073V23H108.073ZM103.643 23H99.6433V27H103.643V23ZM103.643 17.5625H107.643V16.5504L107.162 15.6601L103.643 17.5625ZM97.4089 10.0312H102.401V2.03125H97.4089V10.0312ZM98.8042 7.78111L102.179 14.7186L109.373 11.2189L105.998 4.28139L98.8042 7.78111ZM105.776 16.9688H105.917V8.96875H105.776V16.9688ZM109.509 14.7284L112.907 7.79092L105.723 4.27158L102.325 11.2091L109.509 14.7284ZM109.315 10.0312H114.307V2.03125H109.315V10.0312ZM110.789 4.12888L104.554 15.6601L111.592 19.4649L117.826 7.93362L110.789 4.12888ZM104.073 17.5625V23H112.073V17.5625H104.073ZM108.073 19H103.643V27H108.073V19ZM107.643 23V17.5625H99.6433V23H107.643ZM107.162 15.6601L100.928 4.12888L93.8903 7.93362L100.125 19.4649L107.162 15.6601ZM126.515 14.5156C126.515 16.4627 125.913 17.56 125.31 18.1619C124.691 18.7797 123.712 19.2344 122.312 19.2344V27.2344C125.506 27.2344 128.627 26.1539 130.962 23.8244C133.312 21.479 134.515 18.217 134.515 14.5156H126.515ZM122.312 19.2344C120.888 19.2344 119.904 18.7734 119.287 18.1559C118.683 17.5523 118.085 16.4545 118.085 14.5156H110.085C110.085 18.2018 111.28 21.4633 113.63 23.8128C115.965 26.1484 119.095 27.2344 122.312 27.2344V19.2344ZM118.085 14.5156C118.085 12.5612 118.685 11.4668 119.284 10.8693C119.897 10.2572 120.879 9.79688 122.312 9.79688V1.79688C119.103 1.79688 115.972 2.87173 113.633 5.20685C111.278 7.55666 110.085 10.8216 110.085 14.5156H118.085ZM122.312 9.79688C123.712 9.79688 124.691 10.2515 125.31 10.8693C125.913 11.4712 126.515 12.5686 126.515 14.5156H134.515C134.515 10.8142 133.312 7.5522 130.962 5.20685C128.627 2.87737 125.506 1.79688 122.312 1.79688V9.79688ZM129.921 14.5156C129.921 12.4922 129.516 10.3071 128.188 8.53445C126.728 6.58564 124.57 5.6875 122.312 5.6875V13.6875C122.397 13.6875 122.32 13.7017 122.16 13.6269C121.988 13.5465 121.857 13.4267 121.785 13.3308C121.726 13.2512 121.762 13.2633 121.814 13.4613C121.867 13.662 121.921 14.0023 121.921 14.5156H129.921ZM122.312 5.6875C120.056 5.6875 117.89 6.57542 116.421 8.52712C115.084 10.3029 114.679 12.4929 114.679 14.5156H122.679C122.679 14.0022 122.733 13.6628 122.785 13.4636C122.837 13.2672 122.873 13.2571 122.812 13.3381C122.739 13.4355 122.608 13.5536 122.44 13.6317C122.284 13.7037 122.215 13.6875 122.312 13.6875V5.6875ZM114.679 14.5156C114.679 16.5383 115.084 18.7283 116.421 20.5041C117.89 22.4558 120.056 23.3438 122.312 23.3438V15.3438C122.215 15.3438 122.284 15.3275 122.44 15.3996C122.608 15.4776 122.739 15.5957 122.812 15.6931C122.873 15.7741 122.837 15.764 122.785 15.5677C122.733 15.3685 122.679 15.0291 122.679 14.5156H114.679ZM122.312 23.3438C124.57 23.3438 126.728 22.4456 128.188 20.4968C129.516 18.7242 129.921 16.5391 129.921 14.5156H121.921C121.921 15.0289 121.867 15.3693 121.814 15.5699C121.762 15.7679 121.726 15.7801 121.785 15.7005C121.857 15.6046 121.988 15.4848 122.16 15.4043C122.32 15.3296 122.397 15.3438 122.312 15.3438V23.3438ZM144.527 14.5156C144.527 16.4627 143.926 17.56 143.323 18.1619C142.704 18.7797 141.724 19.2344 140.324 19.2344V27.2344C143.518 27.2344 146.64 26.1539 148.974 23.8244C151.324 21.479 152.527 18.217 152.527 14.5156H144.527ZM140.324 19.2344C138.9 19.2344 137.916 18.7734 137.299 18.1559C136.695 17.5523 136.097 16.4545 136.097 14.5156H128.097C128.097 18.2018 129.293 21.4633 131.642 23.8128C133.978 26.1484 137.107 27.2344 140.324 27.2344V19.2344ZM136.097 14.5156C136.097 12.5612 136.697 11.4668 137.296 10.8693C137.909 10.2572 138.892 9.79688 140.324 9.79688V1.79688C137.116 1.79688 133.985 2.87173 131.645 5.20685C129.29 7.55666 128.097 10.8216 128.097 14.5156H136.097ZM140.324 9.79688C141.724 9.79688 142.704 10.2515 143.323 10.8693C143.926 11.4712 144.527 12.5686 144.527 14.5156H152.527C152.527 10.8142 151.324 7.5522 148.974 5.20685C146.64 2.87737 143.518 1.79688 140.324 1.79688V9.79688ZM147.933 14.5156C147.933 12.4922 147.528 10.3071 146.2 8.53445C144.74 6.58564 142.582 5.6875 140.324 5.6875V13.6875C140.409 13.6875 140.332 13.7017 140.172 13.6269C140 13.5465 139.869 13.4267 139.797 13.3308C139.738 13.2512 139.775 13.2633 139.827 13.4613C139.879 13.662 139.933 14.0023 139.933 14.5156H147.933ZM140.324 5.6875C138.068 5.6875 135.902 6.57542 134.433 8.52712C133.096 10.3029 132.691 12.4929 132.691 14.5156H140.691C140.691 14.0022 140.745 13.6628 140.798 13.4636C140.849 13.2672 140.885 13.2571 140.824 13.3381C140.751 13.4355 140.62 13.5536 140.452 13.6317C140.297 13.7037 140.227 13.6875 140.324 13.6875V5.6875ZM132.691 14.5156C132.691 16.5383 133.096 18.7283 134.433 20.5041C135.902 22.4558 138.068 23.3438 140.324 23.3438V15.3438C140.227 15.3438 140.297 15.3275 140.452 15.3996C140.62 15.4776 140.751 15.5957 140.824 15.6931C140.885 15.7741 140.849 15.764 140.798 15.5677C140.745 15.3685 140.691 15.0291 140.691 14.5156H132.691ZM140.324 23.3438C142.582 23.3438 144.74 22.4456 146.2 20.4968C147.528 18.7242 147.933 16.5391 147.933 14.5156H139.933C139.933 15.0289 139.879 15.3693 139.827 15.5699C139.775 15.7679 139.738 15.7801 139.797 15.7005C139.869 15.6046 140 15.4848 140.172 15.4043C140.332 15.3296 140.409 15.3438 140.324 15.3438V23.3438ZM164.828 6.03125H168.828V2.03125H164.828V6.03125ZM164.828 23V27H168.828V23H164.828ZM161.102 23L157.806 25.2672L158.998 27H161.102V23ZM154.797 13.8359L158.092 11.5687L156.9 9.83594H154.797V13.8359ZM154.68 13.8359V9.83594H150.68V13.8359H154.68ZM154.68 23V27H158.68V23H154.68ZM150.227 23H146.227V27H150.227V23ZM150.227 6.03125V2.03125H146.227V6.03125H150.227ZM154.024 6.03125L157.329 3.77922L156.139 2.03125H154.024V6.03125ZM160.235 15.1484L156.929 17.4005L158.119 19.1484H160.235V15.1484ZM160.375 15.1484V19.1484H164.375V15.1484H160.375ZM160.375 6.03125V2.03125H156.375V6.03125H160.375ZM160.828 6.03125V23H168.828V6.03125H160.828ZM164.828 19H161.102V27H164.828V19ZM164.397 20.7328L158.092 11.5687L151.502 16.1031L157.806 25.2672L164.397 20.7328ZM154.797 9.83594H154.68V17.8359H154.797V9.83594ZM150.68 13.8359V23H158.68V13.8359H150.68ZM154.68 19H150.227V27H154.68V19ZM154.227 23V6.03125H146.227V23H154.227ZM150.227 10.0312H154.024V2.03125H150.227V10.0312ZM150.718 8.28328L156.929 17.4005L163.54 12.8964L157.329 3.77922L150.718 8.28328ZM160.235 19.1484H160.375V11.1484H160.235V19.1484ZM164.375 15.1484V6.03125H156.375V15.1484H164.375ZM160.375 10.0312H164.828V2.03125H160.375V10.0312Z" fill="black" mask="url(#path-1-outside-1_104_3210)"/>
</g>
<defs>
<filter id="filter0_d_104_3210" x="7.17188" y="5.79688" width="159.656" height="19.4375" filterUnits="userSpaceOnUse" color-interpolation-filters="sRGB">
<feFlood flood-opacity="0" result="BackgroundImageFix"/>
<feColorMatrix in="SourceAlpha" type="matrix" values="0 0 0 0 0 0 0 0 0 0 0 0 0 0 0 0 0 0 127 0" result="hardAlpha"/>
<feOffset dx="2" dy="2"/>
<feComposite in2="hardAlpha" operator="out"/>
<feColorMatrix type="matrix" values="0 0 0 0 0 0 0 0 0 0 0 0 0 0 0 0 0 0 1 0"/>
<feBlend mode="normal" in2="BackgroundImageFix" result="effect1_dropShadow_104_3210"/>
<feBlend mode="normal" in="SourceGraphic" in2="effect1_dropShadow_104_3210" result="shape"/>
</filter>
</defs>
</svg>
