<svg width="147" height="23" viewBox="0 0 147 23" fill="none" xmlns="http://www.w3.org/2000/svg">
<path d="M5.96875 18H-0.0078125V1.03125H6.03906C11.1484 1.03125 14.2773 4.20703 14.2656 9.49219C14.2773 14.8008 11.1484 18 5.96875 18ZM3.50781 14.9766H5.82812C9.0625 14.9766 10.75 13.3008 10.75 9.49219C10.75 5.71875 9.0625 4.05469 5.85156 4.05469H3.50781V14.9766ZM16.1406 14.4375C16.1523 11.6016 18.4258 10.6758 20.875 10.5234C21.7891 10.4648 23.5 10.3828 24.0391 10.3594V9.32812C24.0273 8.26172 23.3008 7.65234 22 7.64062C20.8164 7.65234 20.0781 8.17969 19.8906 9.04688H16.5859C16.7969 6.84375 18.7188 5.10938 22.0938 5.10938C24.8711 5.10938 27.4961 6.35156 27.4844 9.42188V18H24.2031V16.2422H24.1094C23.4883 17.4141 22.2695 18.2461 20.3828 18.2344C17.9453 18.2461 16.1523 16.957 16.1406 14.4375ZM19.4688 14.3438C19.4688 15.3164 20.2539 15.832 21.3672 15.8438C22.9492 15.832 24.0508 14.8008 24.0391 13.4531V12.5273C23.5117 12.5508 22.0234 12.6328 21.4375 12.6797C20.2305 12.7852 19.4688 13.3594 19.4688 14.3438ZM35.8984 18.2578C31.9961 18.2461 29.6055 15.7266 29.6172 11.6953C29.6055 7.76953 32.0312 5.10938 35.7578 5.10938C39.0977 5.10938 41.7344 7.21875 41.7344 11.5547V12.5391H33.0391C33.0391 14.4609 34.1758 15.6445 35.9688 15.6562C37.1523 15.6445 37.9961 15.1289 38.3359 14.3672H41.6406C41.1484 16.7227 39.0391 18.2461 35.8984 18.2578ZM33.0391 10.3594H38.4531C38.4414 8.8125 37.375 7.69922 35.8281 7.71094C34.2344 7.69922 33.1094 8.89453 33.0391 10.3594ZM45.6016 22.7812C44.9219 22.7695 44.2891 22.7578 43.8438 22.7109V20.0156C44.2891 20.0508 44.8164 20.0625 45.25 20.0625C45.9414 20.0625 46.4922 19.9922 46.9141 18.8906L47.125 18.3516L42.5547 5.27344H46.1875L48.8594 14.6484H49L51.6953 5.27344H55.375L50.4062 19.4062C49.6797 21.457 48.2852 22.7695 45.6016 22.7812ZM62.3594 18.2578C58.5156 18.2461 56.1133 15.6094 56.125 11.6719C56.1133 7.74609 58.5156 5.10938 62.3594 5.10938C66.2148 5.10938 68.6055 7.74609 68.6172 11.6719C68.6055 15.6094 66.2148 18.2461 62.3594 18.2578ZM59.6406 11.6719C59.6406 13.8984 60.5664 15.5508 62.3828 15.5625C64.1523 15.5508 65.0898 13.8984 65.0781 11.6719C65.0898 9.43359 64.1523 7.75781 62.3828 7.75781C60.5664 7.75781 59.6406 9.43359 59.6406 11.6719ZM76.5156 18.2578C72.6719 18.2461 70.2695 15.6094 70.2812 11.6719C70.2695 7.74609 72.6719 5.10938 76.5156 5.10938C80.3711 5.10938 82.7617 7.74609 82.7734 11.6719C82.7617 15.6094 80.3711 18.2461 76.5156 18.2578ZM73.7969 11.6719C73.7969 13.8984 74.7227 15.5508 76.5391 15.5625C78.3086 15.5508 79.2461 13.8984 79.2344 11.6719C79.2461 9.43359 78.3086 7.75781 76.5391 7.75781C74.7227 7.75781 73.7969 9.43359 73.7969 11.6719ZM88.4219 10.6406V18H84.9531V5.27344H88.2578V7.5H88.3984C88.9727 6.03516 90.332 5.10938 92.2188 5.10938C94.8789 5.10938 96.6133 6.92578 96.6016 9.89062V18H93.1562V10.5C93.1445 8.92969 92.3008 7.99219 90.8594 7.99219C89.418 7.99219 88.4219 8.96484 88.4219 10.6406ZM104.898 18V1.03125H108.414V8.55469H108.648L114.812 1.03125H119.055L112.727 8.625L119.125 18H114.906L110.195 10.9922L108.414 13.1484V18H104.898ZM121.539 18V5.27344H125.008V18H121.539ZM121.375 1.85156C121.375 0.867188 122.23 0.0820312 123.273 0.0703125C124.305 0.0820312 125.16 0.867188 125.148 1.85156C125.16 2.8125 124.305 3.60938 123.273 3.60938C122.23 3.60938 121.375 2.8125 121.375 1.85156ZM127.703 18V5.27344H131.008V7.5H131.148C131.688 6.01172 132.977 5.10938 134.688 5.10938C136.434 5.10938 137.734 6.03516 138.156 7.5H138.273C138.801 6.05859 140.254 5.10938 142.117 5.10938C144.473 5.10938 146.125 6.66797 146.125 9.44531V18H142.656V10.125C142.668 8.67188 141.801 7.96875 140.664 7.96875C139.363 7.96875 138.59 8.87109 138.602 10.2188V18H135.227V10.0312C135.238 8.77734 134.441 7.96875 133.258 7.96875C132.074 7.96875 131.16 8.91797 131.172 10.3594V18H127.703Z" fill="black"/>
</svg>
