<svg width="20" height="20" viewBox="0 0 20 20" fill="none" xmlns="http://www.w3.org/2000/svg">
<g clip-path="url(#clip0_1_436)">
<path d="M5.99988 5H5.00004C4.55801 5 4.13409 5.17559 3.82153 5.48816C3.50897 5.80072 3.33337 6.22464 3.33337 6.66667V15C3.33337 15.442 3.50897 15.866 3.82153 16.1785C4.13409 16.4911 4.55801 16.6667 5.00004 16.6667H13.3334C13.7754 16.6667 14.1993 16.4911 14.5119 16.1785C14.8244 15.866 15 15.442 15 15V14" stroke="#BEBEBE" stroke-width="2" stroke-linecap="round" stroke-linejoin="round"/>
<path d="M12.0238 4.16669H10.119C9.86642 4.16669 9.62418 4.26703 9.44557 4.44563C9.26697 4.62424 9.16663 4.86648 9.16663 5.11907V9.88097C9.16663 10.1336 9.26697 10.3758 9.44557 10.5544C9.62418 10.733 9.86642 10.8334 10.119 10.8334H14.8809C15.1335 10.8334 15.3757 10.733 15.5543 10.5544C15.733 10.3758 15.8333 10.1336 15.8333 9.88097V7.08335" stroke="#BEBEBE" stroke-width="2" stroke-linecap="round" stroke-linejoin="round"/>
<path d="M12.0238 10.8333H10.119C9.86642 10.8333 9.62418 10.733 9.44557 10.5544C9.26697 10.3758 9.16663 10.1335 9.16663 9.88093V5.11903C9.16663 4.86644 9.26697 4.6242 9.44557 4.44559C9.62418 4.26699 9.86642 4.16665 10.119 4.16665H14.8809C15.1335 4.16665 15.3757 4.26699 15.5543 4.44559C15.733 4.6242 15.8333 4.86644 15.8333 5.11903V7.02379" stroke="#BEBEBE" stroke-width="2" stroke-linecap="round" stroke-linejoin="round"/>
</g>
<defs>
<clipPath id="clip0_1_436">
<rect width="20" height="20" fill="white"/>
</clipPath>
</defs>
</svg>
