<svg width="18" height="18" viewBox="0 0 18 18" fill="none" xmlns="http://www.w3.org/2000/svg">
<path fill-rule="evenodd" clip-rule="evenodd" d="M9.26365 14.1363C9.09493 13.9675 9.00014 13.7386 9.00014 13.5C9.00014 13.2613 9.09493 13.0325 9.26365 12.8637L13.1274 8.99999L9.26365 5.13629C9.17769 5.05327 9.10913 4.95396 9.06196 4.84415C9.01479 4.73435 8.98996 4.61625 8.98893 4.49675C8.98789 4.37725 9.01066 4.25874 9.05591 4.14813C9.10116 4.03752 9.16799 3.93704 9.2525 3.85253C9.337 3.76803 9.43749 3.7012 9.54809 3.65595C9.6587 3.6107 9.77721 3.58792 9.89671 3.58896C10.0162 3.59 10.1343 3.61483 10.2441 3.662C10.3539 3.70916 10.4532 3.77773 10.5363 3.86369L15.0363 8.36369C15.205 8.53246 15.2998 8.76134 15.2998 8.99999C15.2998 9.23864 15.205 9.46751 15.0363 9.63629L10.5363 14.1363C10.3675 14.305 10.1386 14.3998 9.89995 14.3998C9.6613 14.3998 9.43243 14.305 9.26365 14.1363Z" fill="#DADADA"/>
<path fill-rule="evenodd" clip-rule="evenodd" d="M3.86373 14.1363C3.695 13.9675 3.60022 13.7386 3.60022 13.5C3.60022 13.2613 3.695 13.0325 3.86373 12.8637L7.72743 8.99999L3.86373 5.13629C3.69979 4.96655 3.60907 4.73921 3.61112 4.50323C3.61317 4.26726 3.70782 4.04152 3.87469 3.87466C4.04156 3.70779 4.26729 3.61314 4.50327 3.61109C4.73924 3.60904 4.96659 3.69975 5.13633 3.86369L9.63633 8.36369C9.80505 8.53247 9.89984 8.76135 9.89984 8.99999C9.89984 9.23864 9.80505 9.46752 9.63633 9.63629L5.13633 14.1363C4.96755 14.305 4.73868 14.3998 4.50003 14.3998C4.26138 14.3998 4.0325 14.305 3.86373 14.1363Z" fill="#DADADA"/>
</svg>
