<svg width="94" height="94" viewBox="0 0 94 94" fill="none" xmlns="http://www.w3.org/2000/svg">
<g filter="url(#filter0_d_121_3212)">
<circle cx="47" cy="37" r="36" fill="white"/>
</g>
<path fill-rule="evenodd" clip-rule="evenodd" d="M50.707 27.707C50.5195 27.8945 50.2651 27.9998 50 27.9998C49.7348 27.9998 49.4805 27.8945 49.293 27.707L46 24.414L42.707 27.707C42.5184 27.8892 42.2658 27.99 42.0036 27.9877C41.7414 27.9854 41.4906 27.8802 41.3052 27.6948C41.1198 27.5094 41.0146 27.2586 41.0123 26.9964C41.01 26.7342 41.1108 26.4816 41.293 26.293L45.293 22.293C45.4805 22.1055 45.7348 22.0002 46 22.0002C46.2651 22.0002 46.5195 22.1055 46.707 22.293L50.707 26.293C50.8945 26.4805 50.9998 26.7348 50.9998 27C50.9998 27.2652 50.8945 27.5195 50.707 27.707Z" fill="#498AFF"/>
<path d="M31.5156 40.625V38.6875H40.7812V40.625H37.3125V50H34.9844V40.625H31.5156ZM51.7738 44.3438C51.7738 48.0391 49.4847 50.1562 46.4925 50.1562C43.4769 50.1562 41.1956 48.0234 41.1956 44.3438C41.1956 40.6484 43.4769 38.5312 46.4925 38.5312C49.4847 38.5312 51.7738 40.6484 51.7738 44.3438ZM43.5863 44.3438C43.5863 46.7578 44.7347 48.0703 46.4925 48.0781C48.2347 48.0703 49.3909 46.7578 49.3831 44.3438C49.3909 41.9219 48.2347 40.6172 46.4925 40.6094C44.7347 40.6172 43.5863 41.9219 43.5863 44.3438ZM53.1413 50V38.6875H57.5788C60.1491 38.6875 61.6256 40.2734 61.6256 42.5C61.6256 44.7578 60.1256 46.3125 57.5163 46.3125H55.485V50H53.1413ZM55.485 44.4219H57.1413C58.5319 44.4219 59.2116 43.6406 59.2038 42.5C59.2116 41.375 58.5319 40.6172 57.1413 40.6094H55.485V44.4219Z" fill="#498AFF"/>
<defs>
<filter id="filter0_d_121_3212" x="0" y="0" width="94" height="94" filterUnits="userSpaceOnUse" color-interpolation-filters="sRGB">
<feFlood flood-opacity="0" result="BackgroundImageFix"/>
<feColorMatrix in="SourceAlpha" type="matrix" values="0 0 0 0 0 0 0 0 0 0 0 0 0 0 0 0 0 0 127 0" result="hardAlpha"/>
<feMorphology radius="1" operator="dilate" in="SourceAlpha" result="effect1_dropShadow_121_3212"/>
<feOffset dy="10"/>
<feGaussianBlur stdDeviation="5"/>
<feComposite in2="hardAlpha" operator="out"/>
<feColorMatrix type="matrix" values="0 0 0 0 0 0 0 0 0 0 0 0 0 0 0 0 0 0 0.1 0"/>
<feBlend mode="normal" in2="BackgroundImageFix" result="effect1_dropShadow_121_3212"/>
<feBlend mode="normal" in="SourceGraphic" in2="effect1_dropShadow_121_3212" result="shape"/>
</filter>
</defs>
</svg>
